<?xml version="1.0" encoding="UTF-8"?>
<svg width="355px" height="89px" viewBox="0 0 355 89" version="1.1" xmlns="http://www.w3.org/2000/svg" xmlns:xlink="http://www.w3.org/1999/xlink">
    <!-- Generator: Sketch 43.2 (39069) - http://www.bohemiancoding.com/sketch -->
    <title>Clearlink Lead Blue</title>
    <desc>Created with Sketch.</desc>
    <defs></defs>
    <g id="Page-1" stroke="none" stroke-width="1" fill="none" fill-rule="evenodd">
        <g id="Clearlink-Lead-Blue" transform="translate(0.880794, 0.375357)" fill="#00AFEC">
            <path d="M159.149268,17.3912327 C155.555771,14.9757837 150.195979,13.7680592 143.008986,13.7680592 C136.61378,13.7680592 131.680336,15.2173286 128.208652,18.1762536 C125.163316,20.712475 123.336115,23.9733311 122.848861,27.8984357 L135.700179,27.8984357 C136.309247,26.5095526 137.344661,25.543373 138.745516,25.0602832 C140.14637,24.5771934 141.729945,24.2752623 143.557147,24.2752623 C145.201628,24.2752623 147.02883,24.5771934 149.038752,25.1206694 C151.048674,25.6641454 152.023181,26.9322561 152.023181,28.8646153 C152.023181,29.8911811 151.475021,30.7969745 150.683233,31.461223 C149.586912,32.3670164 148.125151,32.8501061 146.724296,33.2124235 C146.115229,33.3935822 145.506162,33.5143546 144.897095,33.5747408 C142.521732,33.9974444 140.14637,34.2993755 137.831915,34.6616929 C135.578366,35.0240102 133.324817,35.5674863 131.193082,36.4128934 C129.426787,37.1375281 127.782305,37.9829352 126.259637,39.1302735 C123.092488,41.42495 121.56982,45.2292822 121.56982,50.5432699 C121.56982,56.2799613 123.275208,60.3258383 126.746891,62.8016735 C130.218574,65.2775087 134.238418,66.5456194 138.867329,66.5456194 C141.181784,66.5456194 143.800774,66.3644608 146.84611,66.0625296 C149.830539,65.7605985 152.693155,64.9151914 155.373051,63.465922 C157.931133,62.1978113 160.123775,60.1446796 162.011884,57.2461409 C163.839085,54.4079883 164.813593,50.4224975 164.813593,45.3500546 L164.813593,28.0795944 C164.69178,23.4902413 162.864578,19.9274541 159.149268,17.3912327 Z M152.205901,44.8065786 C152.205901,48.3693659 151.170487,51.1471322 149.160565,53.2002638 C147.089737,55.2533954 144.288027,56.219575 140.694531,56.219575 C138.501889,56.219575 136.857407,55.7364852 135.700179,54.7099194 C134.542952,53.5625812 133.994791,52.0529255 133.994791,50.1205664 C133.994791,48.7316832 134.421138,46.9804827 135.334739,45.9539169 C136.24834,44.9273511 138.075542,43.9611715 140.32909,43.4780817 C142.582639,42.9949919 144.775281,42.5119021 144.775281,42.5119021 C148.003337,41.7268812 150.500513,40.9418602 152.266808,40.0360669 L152.266808,44.8065786 L152.205901,44.8065786 Z M351.066353,60.6881557 C351.370886,60.4466108 351.4927,60.0842934 351.4927,59.6012036 C351.4927,59.0577276 351.370886,58.6954102 351.005446,58.4538653 C350.700912,58.2123205 350.213659,58.091548 349.543685,58.091548 L347.411949,58.091548 L347.411949,63.465922 L348.264643,63.465922 L348.264643,61.1712455 L349.178244,61.1712455 L350.640006,63.5263082 L351.553606,63.5263082 L350.030938,61.1108592 C350.457285,61.050473 350.822726,60.9297006 351.066353,60.6881557 Z M349.239151,60.4466108 L348.32555,60.4466108 L348.32555,58.7557965 L349.421871,58.7557965 C349.543685,58.7557965 349.726405,58.7557965 349.848218,58.8161827 C349.970032,58.8161827 350.091845,58.8765689 350.213659,58.9369551 C350.335472,58.9973414 350.396379,59.0577276 350.457285,59.1785 C350.518192,59.2992725 350.579099,59.4200449 350.579099,59.6012036 C350.579099,59.8427485 350.518192,59.963521 350.457285,60.0842934 C350.396379,60.2050659 350.274565,60.2654521 350.152752,60.3258383 C350.030938,60.3862245 349.848218,60.4466108 349.726405,60.4466108 C349.604591,60.4466108 349.421871,60.4466108 349.239151,60.4466108 Z M353.624435,58.9369551 C353.380808,58.3934791 353.015368,57.9103893 352.649927,57.4876858 C352.22358,57.0649822 351.736327,56.7630511 351.188166,56.5215062 C350.640006,56.2799613 350.030938,56.1591888 349.360964,56.1591888 C348.69099,56.1591888 348.14283,56.2799613 347.533763,56.5215062 C346.985602,56.7630511 346.437442,57.0649822 346.011095,57.4876858 C345.584748,57.9103893 345.219307,58.3934791 344.97568,58.9369551 C344.732053,59.4804312 344.61024,60.0842934 344.61024,60.7485419 C344.61024,61.4127904 344.732053,62.0166526 344.97568,62.6205148 C345.219307,63.1639909 345.584748,63.7074669 346.011095,64.0697842 C346.437442,64.4924878 346.924696,64.7944189 347.472856,65.0359638 C348.021017,65.2775087 348.630084,65.3982812 349.300058,65.3982812 C349.970032,65.3982812 350.518192,65.2775087 351.127259,65.0359638 C351.67542,64.7944189 352.162674,64.4924878 352.589021,64.0697842 C353.015368,63.6470807 353.380808,63.1639909 353.624435,62.6205148 C353.868062,62.0770388 353.989875,61.4127904 353.989875,60.7485419 C353.989875,60.0842934 353.868062,59.4804312 353.624435,58.9369551 Z M352.832648,62.3185837 C352.649927,62.8016735 352.345394,63.2243771 352.04086,63.5866944 C351.67542,63.9490118 351.30998,64.1905567 350.822726,64.4321016 C350.335472,64.6132603 349.848218,64.7340327 349.300058,64.7340327 C348.751897,64.7340327 348.264643,64.6132603 347.77739,64.4321016 C347.290136,64.2509429 346.924696,63.9490118 346.559255,63.5866944 C346.193815,63.2243771 345.950188,62.8016735 345.767468,62.3185837 C345.584748,61.8354939 345.462934,61.2920179 345.462934,60.7485419 C345.462934,60.2050659 345.584748,59.6615898 345.767468,59.1785 C345.950188,58.6954102 346.254722,58.2727067 346.559255,57.9103893 C346.924696,57.548072 347.290136,57.3065271 347.77739,57.0649822 C348.264643,56.8838235 348.751897,56.7630511 349.300058,56.7630511 C349.848218,56.7630511 350.335472,56.8838235 350.822726,57.0649822 C351.30998,57.2461409 351.67542,57.548072 352.04086,57.9103893 C352.406301,58.2727067 352.649927,58.6954102 352.832648,59.1785 C353.015368,59.6615898 353.137181,60.1446796 353.137181,60.7485419 C353.137181,61.3524041 353.015368,61.8354939 352.832648,62.3185837 Z M92.5782193,13.7680592 C85.2694125,13.7680592 79.6050873,16.123122 75.4634301,20.8332475 C71.5044931,25.4226005 69.4945712,31.7631541 69.4945712,39.8549082 C69.4945712,48.3693659 71.5653998,54.8910781 75.6461503,59.4804312 C79.7269007,64.1905567 85.4521327,66.5456194 92.7609395,66.5456194 C98.7907051,66.5456194 103.785056,65.09635 107.743993,62.137425 C111.70293,59.3596587 114.382826,55.2533954 115.783681,49.9394077 L106.160419,49.9394077 C105.064098,49.9394077 103.541429,50.0601801 102.262388,51.2075184 C100.92244,52.4152429 100.130653,53.5625812 98.7907051,54.2872159 C97.3289437,55.0722368 95.5626487,55.4949403 93.4918202,55.4949403 C90.1419504,55.4949403 87.6447747,54.4683745 86.0002932,52.4756291 C84.2339982,50.5432699 83.2594907,47.6447312 83.1376772,43.7196266 L116.392748,43.7196266 C116.514562,43.4780817 116.575468,42.9949919 116.575468,42.3911296 L116.575468,41.6061087 L116.575468,40.2776118 C116.575468,31.8839266 114.50464,25.3622143 110.423889,20.6520888 C106.221325,16.0627357 100.252466,13.7680592 92.5782193,13.7680592 Z M83.1376772,35.0843965 C83.2594907,31.7631541 84.2339982,29.2269327 86.0002932,27.4757322 C87.7665882,25.7245317 90.0810437,24.8187383 92.9436596,24.8187383 C95.9889958,24.8187383 98.364358,25.7245317 100.069746,27.4757322 C101.592414,29.1061602 102.506015,31.6423817 102.749642,35.0843965 L83.1376772,35.0843965 Z M57.8613871,0.0603862245 L50.9789273,0.0603862245 L50.9789273,65.5794398 L64.4393132,65.5794398 L64.4393132,6.34055358 C64.4393132,4.58935306 63.7693392,3.07969745 62.490298,1.87197296 C61.2112568,0.66424847 59.6885888,0.0603862245 57.8613871,0.0603862245 Z M35.6913398,49.9997939 L35.6304331,49.9997939 C35.3868062,50.0601801 35.0822726,50.0601801 34.8386457,50.1809526 C34.777739,50.1809526 34.7168322,50.1809526 34.7168322,50.2413388 C34.107765,50.4224975 33.4377911,50.7244286 32.8896305,51.2075184 C31.5496826,52.4152429 30.7578952,53.5625812 29.4179473,54.2872159 C27.956186,55.0722368 26.189891,55.4949403 24.1190624,55.4949403 C20.7691926,55.4949403 18.272017,54.4683745 16.6275354,52.4756291 C14.31308,50.0601801 13.1558522,45.9539169 13.1558522,40.0964531 C13.1558522,34.2389893 14.31308,30.0723398 16.6275354,27.5361184 C18.3938304,25.7849179 20.7082859,24.8791245 23.5709019,24.8791245 C26.6162381,24.8791245 28.9916003,25.7849179 30.6969885,27.5361184 C31.3669625,28.2003669 31.9760297,29.1061602 32.6460037,30.3742709 L46.1063895,30.3742709 C44.888255,26.6907112 43.2437735,23.4298551 40.929318,20.6520888 C36.7267541,16.0627357 30.7578952,13.7680592 23.0836481,13.7680592 C15.7748413,13.7680592 10.1105161,16.123122 5.96885888,20.8332475 C2.00992187,25.4226005 0,31.7631541 0,39.8549082 C0,48.3693659 2.07082859,54.8910781 6.15157905,59.4804312 C10.2323295,64.1905567 15.9575615,66.5456194 23.2663683,66.5456194 C29.2961339,66.5456194 34.2904852,65.09635 38.2494222,62.137425 C42.2083592,59.3596587 44.888255,55.2533954 46.2891097,49.9394077 L36.6658474,49.9394077 C36.3613138,49.9997939 36.0567802,49.9997939 35.6913398,49.9997939 Z M233.029123,0.0603862245 L226.085757,0.0603862245 L226.085757,10.5072031 L239.546142,10.5072031 L239.546142,6.52171225 C239.546142,4.77051174 238.876169,3.2004699 237.597127,1.93235919 C236.318086,0.724634694 234.795418,0.0603862245 233.029123,0.0603862245 Z M283.45989,18.1762536 C278.709165,15.2777148 273.532094,13.7680592 267.867769,13.7680592 C262.386164,14.0096041 257.330906,15.6400322 252.762901,18.5385709 C248.194897,21.4371097 245.941348,27.2341873 245.941348,35.8694174 L245.941348,65.5794398 L259.401734,65.5794398 L259.401734,33.2124235 C259.401734,30.1931123 260.315335,27.958822 262.08163,26.5699388 C263.847925,25.1810556 265.918754,24.4564209 268.233209,24.4564209 C270.547665,24.4564209 272.618493,25.1810556 274.506602,26.5699388 C276.333803,27.958822 277.308311,30.1931123 277.308311,33.2124235 L277.308311,59.1181138 C277.308311,61.050473 277.917378,62.5601286 279.135513,63.7678531 C280.353647,64.9755776 281.937222,65.5794398 283.82533,65.5794398 L290.52507,65.5794398 L290.52507,35.8694174 C290.585977,26.9926424 288.210614,21.0747924 283.45989,18.1762536 Z M342.539411,14.9153975 L326.39913,14.9153975 L310.076128,33.5747408 L310.076128,14.9153975 L310.076128,6.34055358 C310.076128,4.71012551 309.406154,3.2004699 308.127113,1.93235919 C306.848072,0.66424847 305.325404,0 303.498202,0 L296.554835,0 L296.554835,65.5190536 L310.015221,65.5190536 L310.015221,53.3814225 L310.015221,46.3766204 C310.015221,45.3500546 310.746102,44.2027164 312.146957,44.0819439 C313.608718,43.9611715 315.192293,45.0481235 317.141308,48.4901383 L326.58185,65.6398261 L342.722132,65.6398261 L324.267394,34.420148 L342.539411,14.9153975 Z M197.459597,14.9153975 C193.987913,14.9153975 190.638044,15.338101 187.349081,16.2438944 C184.060118,17.1496878 181.258408,18.5385709 178.822139,20.4105439 C176.264057,22.4636755 174.254135,25.1206694 172.792374,28.502298 C171.330612,31.8839266 170.599732,36.050576 170.599732,41.0022465 L170.599732,65.5794398 L184.060118,65.5794398 L184.060118,39.4925908 C184.060118,35.6882587 184.973718,32.9104924 186.740013,31.0989056 C188.506308,29.3477051 191.308018,28.4419118 195.023328,28.4419118 L199.469519,28.4419118 L199.469519,14.9153975 L198.495011,14.9153975 L197.459597,14.9153975 Z M233.029123,14.9153975 L226.085757,14.9153975 L226.085757,65.5794398 L239.546142,65.5794398 L239.546142,21.3767235 C239.546142,19.625523 238.876169,18.0554811 237.597127,16.7873704 C236.318086,15.5796459 234.795418,14.9153975 233.029123,14.9153975 Z M212.138117,0.0603862245 L205.194751,0.0603862245 L205.194751,65.5794398 L218.655136,65.5794398 L218.655136,6.34055358 C218.655136,4.58935306 217.985162,3.07969745 216.706121,1.87197296 C215.487987,0.66424847 213.965319,0.0603862245 212.138117,0.0603862245 Z" id="Shape" fill-rule="nonzero"></path>
            <path d="M278.241395,69.7773244 L280.763652,69.7773244 L280.763652,86.038175 L290.1936,86.038175 L290.1936,88.2372854 L278.241395,88.2372854 L278.241395,69.7773244 Z M292.918652,69.7773244 L306.493213,69.7773244 L306.493213,72.0392665 L295.377536,72.0392665 L295.377536,77.6438565 L305.656686,77.6438565 L305.656686,79.7801351 L295.377536,79.7801351 L295.377536,86.038175 L306.683333,86.038175 L306.683333,88.2372854 L292.918652,88.2372854 L292.918652,69.7773244 Z M319.548114,80.6723456 L316.721665,72.5167876 L313.71777,80.6723456 L319.548114,80.6723456 Z M315.4035,69.7773244 L318.255298,69.7773244 L325.010893,88.2372854 L322.247817,88.2372854 L320.359292,82.7080936 L312.995314,82.7080936 L310.980043,88.2372854 L308.394412,88.2372854 L315.4035,69.7773244 Z M334.453515,86.1010068 C335.306946,86.1010068 336.00827,86.0130432 336.557509,85.8371135 C337.537687,85.5103869 338.340408,84.8820759 338.965694,83.9521617 C339.464233,83.2065549 339.823345,82.2515222 340.04304,81.087035 C340.169787,80.3916938 340.23316,79.7466279 340.23316,79.1518179 C340.23316,76.8647316 339.774765,75.0887059 338.857959,73.8236875 C337.941154,72.5586691 336.464571,71.9261694 334.428166,71.9261694 L329.95401,71.9261694 L329.95401,86.1010068 L334.453515,86.1010068 Z M327.419078,69.7773244 L334.960501,69.7773244 C337.520796,69.7773244 339.506473,70.6779034 340.917592,72.4790886 C342.176614,74.104344 342.806116,76.1861477 342.806116,78.7245621 C342.806116,80.6849218 342.43433,82.4567587 341.690746,84.0401262 C340.381025,86.8382463 338.129182,88.2372854 334.935152,88.2372854 L327.419078,88.2372854 L327.419078,69.7773244 Z" id="LEAD"></path>
        </g>
    </g>
</svg>