<?xml version="1.0" encoding="UTF-8"?>
<svg width="268px" height="67px" viewBox="0 0 268 67" version="1.1" xmlns="http://www.w3.org/2000/svg" xmlns:xlink="http://www.w3.org/1999/xlink">
    <!-- Generator: Sketch 43.2 (39069) - http://www.bohemiancoding.com/sketch -->
    <title>Clearlink Lead Blue</title>
    <desc>Created with Sketch.</desc>
    <defs></defs>
    <g id="Page-1" stroke="none" stroke-width="1" fill="none" fill-rule="evenodd">
        <g id="Clearlink-Lead-Blue" transform="translate(0.880794, 0.375357)" fill="#00AFEC">
            <path d="M120.043358,13.1178861 C117.332849,11.2959575 113.290057,10.3849931 107.869041,10.3849931 C103.045255,10.3849931 99.3240487,11.4781503 96.7054221,13.7100129 C94.4083812,15.6230379 93.0301566,18.0826416 92.6626301,21.0432756 L102.356143,21.0432756 C102.815551,19.9956666 103.596545,19.2668952 104.653184,18.9025094 C105.709822,18.5381237 106.904284,18.3103826 108.282508,18.3103826 C109.52291,18.3103826 110.901135,18.5381237 112.417182,18.9480577 C113.933229,19.3579916 114.668282,20.3145041 114.668282,21.772047 C114.668282,22.5463667 114.254815,23.2295899 113.657584,23.7306203 C112.830649,24.4138435 111.72807,24.7782292 110.671431,25.0515185 C110.212023,25.1881632 109.752614,25.2792596 109.293206,25.3248078 C107.501514,25.6436453 105.709822,25.8713864 103.964071,26.1446757 C102.264261,26.417965 100.564451,26.8278989 98.9565222,27.465574 C97.6242385,28.0121526 96.3838364,28.6498276 95.2353159,29.5152437 C92.8463934,31.2460759 91.6978729,34.1156134 91.6978729,38.1238564 C91.6978729,42.4509369 92.9842158,45.5026673 95.6028425,47.3701442 C98.2214691,49.237621 101.253563,50.1941335 104.745065,50.1941335 C106.490816,50.1941335 108.466272,50.0574889 110.763312,49.8297478 C113.014413,49.6020067 115.173631,48.9643317 117.195027,47.8711745 C119.124541,46.914662 120.778411,45.3660227 122.202576,43.1797083 C123.580801,41.0389422 124.315854,38.03276 124.315854,34.2067099 L124.315854,21.1799202 C124.223972,17.7182558 122.845748,15.0309111 120.043358,13.1178861 Z M114.806104,33.7967759 C114.806104,36.4841206 114.025111,38.5793386 112.509064,40.1279779 C110.947076,41.6766172 108.833798,42.4053887 106.12329,42.4053887 C104.46942,42.4053887 103.229018,42.0410029 102.356143,41.2666833 C101.483267,40.4012672 101.0698,39.2625618 101.0698,37.8050189 C101.0698,36.7574099 101.391386,35.4365117 102.080498,34.662192 C102.76961,33.8878724 104.147835,33.1591009 105.847645,32.7947152 C107.547455,32.4303295 109.201325,32.0659437 109.201325,32.0659437 C111.636188,31.4738169 113.519762,30.8816901 114.852045,30.1984669 L114.852045,33.7967759 L114.806104,33.7967759 Z M264.802876,45.7759566 C265.03258,45.5937637 265.124461,45.3204745 265.124461,44.9560887 C265.124461,44.5461548 265.03258,44.2728655 264.756935,44.0906726 C264.527231,43.9084798 264.159704,43.8173833 263.654355,43.8173833 L262.046426,43.8173833 L262.046426,47.8711745 L262.689598,47.8711745 L262.689598,46.1403423 L263.37871,46.1403423 L264.48129,47.9167227 L265.170402,47.9167227 L264.021882,46.0947941 C264.343467,46.0492459 264.619112,45.9581495 264.802876,45.7759566 Z M263.424651,45.5937637 L262.735539,45.5937637 L262.735539,44.3184137 L263.562473,44.3184137 C263.654355,44.3184137 263.792178,44.3184137 263.884059,44.3639619 C263.975941,44.3639619 264.067822,44.4095101 264.159704,44.4550584 C264.251586,44.5006066 264.297527,44.5461548 264.343467,44.6372512 C264.389408,44.7283477 264.435349,44.8194441 264.435349,44.9560887 C264.435349,45.1382816 264.389408,45.229378 264.343467,45.3204745 C264.297527,45.4115709 264.205645,45.4571191 264.113763,45.5026673 C264.021882,45.5482155 263.884059,45.5937637 263.792178,45.5937637 C263.700296,45.5937637 263.562473,45.5937637 263.424651,45.5937637 Z M266.73239,44.4550584 C266.548627,44.0451244 266.272982,43.6807387 265.997337,43.3619012 C265.675751,43.0430637 265.308225,42.8153226 264.894757,42.6331297 C264.48129,42.4509369 264.021882,42.3598404 263.516533,42.3598404 C263.011184,42.3598404 262.597716,42.4509369 262.138308,42.6331297 C261.724841,42.8153226 261.311373,43.0430637 260.989788,43.3619012 C260.668202,43.6807387 260.392557,44.0451244 260.208794,44.4550584 C260.02503,44.8649923 259.933149,45.3204745 259.933149,45.8215048 C259.933149,46.3225352 260.02503,46.7780174 260.208794,47.2334995 C260.392557,47.6434334 260.668202,48.0533674 260.989788,48.3266567 C261.311373,48.6454942 261.6789,48.8732353 262.092367,49.0554281 C262.505835,49.237621 262.965243,49.3287174 263.470592,49.3287174 C263.975941,49.3287174 264.389408,49.237621 264.848816,49.0554281 C265.262284,48.8732353 265.62981,48.6454942 265.951396,48.3266567 C266.272982,48.0078192 266.548627,47.6434334 266.73239,47.2334995 C266.916153,46.8235656 267.008035,46.3225352 267.008035,45.8215048 C267.008035,45.3204745 266.916153,44.8649923 266.73239,44.4550584 Z M266.135159,47.0057584 C265.997337,47.3701442 265.767633,47.6889817 265.537929,47.962271 C265.262284,48.2355602 264.986639,48.4177531 264.619112,48.599946 C264.251586,48.7365906 263.884059,48.827687 263.470592,48.827687 C263.057124,48.827687 262.689598,48.7365906 262.322071,48.599946 C261.954545,48.4633013 261.6789,48.2355602 261.403255,47.962271 C261.12761,47.6889817 260.943847,47.3701442 260.806024,47.0057584 C260.668202,46.6413727 260.57632,46.2314388 260.57632,45.8215048 C260.57632,45.4115709 260.668202,45.0016369 260.806024,44.6372512 C260.943847,44.2728655 261.173551,43.954028 261.403255,43.6807387 C261.6789,43.4074494 261.954545,43.2252565 262.322071,43.0430637 C262.689598,42.906419 263.057124,42.8153226 263.470592,42.8153226 C263.884059,42.8153226 264.251586,42.906419 264.619112,43.0430637 C264.986639,43.1797083 265.262284,43.4074494 265.537929,43.6807387 C265.813574,43.954028 265.997337,44.2728655 266.135159,44.6372512 C266.272982,45.0016369 266.364863,45.3660227 266.364863,45.8215048 C266.364863,46.276987 266.272982,46.6413727 266.135159,47.0057584 Z M69.8300435,10.3849931 C64.3171453,10.3849931 60.0446493,12.1613735 56.9206736,15.7141344 C53.9345204,19.1757987 52.4184735,23.9583614 52.4184735,30.0618223 C52.4184735,36.4841206 53.9804613,41.4033279 57.0584961,44.8649923 C60.1365309,48.4177531 64.4549678,50.1941335 69.967866,50.1941335 C74.516007,50.1941335 78.283154,49.1009763 81.2693072,46.8691138 C84.2554604,44.7738959 86.2768564,41.6766172 87.3334952,37.6683742 L80.0748459,37.6683742 C79.2479112,37.6683742 78.0993908,37.7594707 77.1346336,38.6248868 C76.1239356,39.5358511 75.526705,40.4012672 74.516007,40.9478458 C73.4134273,41.5399726 72.0811436,41.8588101 70.5191558,41.8588101 C67.9924108,41.8588101 66.1088372,41.0844904 64.8684352,39.5813993 C63.5361514,38.1238564 62.8010983,35.9375421 62.7092167,32.976908 L87.7929034,32.976908 C87.884785,32.7947152 87.9307258,32.4303295 87.9307258,31.9748473 L87.9307258,31.3827205 L87.9307258,30.3806598 C87.9307258,24.0494578 86.368738,19.1302505 83.2907032,15.5774897 C80.1207868,12.1158253 75.6185866,10.3849931 69.8300435,10.3849931 Z M62.7092167,26.4635132 C62.8010983,23.9583614 63.5361514,22.0453363 64.8684352,20.7244381 C66.2007189,19.4035398 67.94647,18.7203166 70.1056884,18.7203166 C72.4027293,18.7203166 74.1944212,19.4035398 75.4807641,20.7244381 C76.6292846,21.9542399 77.3183969,23.8672649 77.5021601,26.4635132 L62.7092167,26.4635132 Z M43.6437772,0.0455482155 L38.4524647,0.0455482155 L38.4524647,49.4653621 L48.6053855,49.4653621 L48.6053855,4.78256263 C48.6053855,3.46166438 48.1000365,2.32295899 47.1352794,1.41199468 C46.1705222,0.501030371 45.0220017,0.0455482155 43.6437772,0.0455482155 Z M26.9213194,37.7139225 L26.8753786,37.7139225 C26.6916153,37.7594707 26.4619112,37.7594707 26.278148,37.8505671 C26.2322071,37.8505671 26.1862663,37.8505671 26.1862663,37.8961153 C25.7268581,38.03276 25.2215091,38.260501 24.8080418,38.6248868 C23.7973438,39.5358511 23.2001131,40.4012672 22.1894151,40.9478458 C21.0868355,41.5399726 19.7545518,41.8588101 18.192564,41.8588101 C15.665819,41.8588101 13.7822454,41.0844904 12.5418433,39.5813993 C10.7960923,37.7594707 9.92321671,34.662192 9.92321671,30.2440151 C9.92321671,25.8258382 10.7960923,22.6830113 12.5418433,20.7699863 C13.8741271,19.449088 15.6198782,18.7658648 17.7790966,18.7658648 C20.0761375,18.7658648 21.8678294,19.449088 23.1541723,20.7699863 C23.6595213,21.2710167 24.1189295,21.9542399 24.6242785,22.9107524 L34.7771993,22.9107524 C33.8583829,20.1323113 32.6179808,17.6727076 30.8722298,15.5774897 C27.7023133,12.1158253 23.2001131,10.3849931 17.4115701,10.3849931 C11.8986719,10.3849931 7.6261758,12.1613735 4.50220017,15.7141344 C1.516047,19.1757987 0,23.9583614 0,30.0618223 C0,36.4841206 1.56198782,41.4033279 4.64002263,44.8649923 C7.71805744,48.4177531 12.0364943,50.1941335 17.5493925,50.1941335 C22.0975335,50.1941335 25.8646806,49.1009763 28.8508338,46.8691138 C31.8369869,44.7738959 33.8583829,41.6766172 34.9150218,37.6683742 L27.6563725,37.6683742 C27.4266684,37.7139225 27.1969643,37.7139225 26.9213194,37.7139225 Z M175.76957,0.0455482155 L170.532317,0.0455482155 L170.532317,7.9253895 L180.685238,7.9253895 L180.685238,4.91920728 C180.685238,3.59830903 180.179889,2.41405542 179.215131,1.4575429 C178.250374,0.546578586 177.101854,0.0455482155 175.76957,0.0455482155 Z M213.808567,13.7100129 C210.225184,11.5236985 206.320214,10.3849931 202.047718,10.3849931 C197.913044,10.567186 194.099956,11.7969878 190.654395,13.9833022 C187.208834,16.1696165 185.509023,20.5422452 185.509023,27.05564 L185.509023,49.4653621 L195.661944,49.4653621 L195.661944,25.0515185 C195.661944,22.7741078 196.351057,21.0888238 197.68334,20.0412148 C199.015624,18.9936059 200.577612,18.4470273 202.323363,18.4470273 C204.069114,18.4470273 205.631102,18.9936059 207.055267,20.0412148 C208.433492,21.0888238 209.168545,22.7741078 209.168545,25.0515185 L209.168545,44.591703 C209.168545,46.0492459 209.627953,47.1879513 210.546769,48.0989156 C211.465586,49.0098799 212.660047,49.4653621 214.084212,49.4653621 L219.137702,49.4653621 L219.137702,27.05564 C219.183643,20.3600523 217.391951,15.8963272 213.808567,13.7100129 Z M258.371161,11.2504092 L246.196844,11.2504092 L233.884705,25.3248078 L233.884705,11.2504092 L233.884705,4.78256263 C233.884705,3.55276081 233.379356,2.41405542 232.414599,1.4575429 C231.449842,0.501030371 230.301321,0 228.923097,0 L223.685843,0 L223.685843,49.4198139 L233.838764,49.4198139 L233.838764,40.2646225 L233.838764,34.9810295 C233.838764,34.2067099 234.390054,33.3412938 235.446693,33.2501973 C236.549272,33.1591009 237.743734,33.9789688 239.21384,36.5752171 L246.334667,49.5109103 L258.508983,49.5109103 L244.588916,25.9624829 L258.371161,11.2504092 Z M148.940132,11.2504092 C146.321506,11.2504092 143.794761,11.5692467 141.313956,12.25247 C138.833152,12.9356932 136.719875,13.9833022 134.882242,15.3952968 C132.952728,16.9439362 131.436681,18.9480577 130.334101,21.4987577 C129.231521,24.0494578 128.680231,27.1922847 128.680231,30.9272383 L128.680231,49.4653621 L138.833152,49.4653621 L138.833152,29.788533 C138.833152,26.9189954 139.522265,24.8237775 140.854548,23.457331 C142.186832,22.1364327 144.30011,21.4532095 147.1025,21.4532095 L150.456179,21.4532095 L150.456179,11.2504092 L149.721126,11.2504092 L148.940132,11.2504092 Z M175.76957,11.2504092 L170.532317,11.2504092 L170.532317,49.4653621 L180.685238,49.4653621 L180.685238,16.1240683 C180.685238,14.80317 180.179889,13.6189164 179.215131,12.6624039 C178.250374,11.7514396 177.101854,11.2504092 175.76957,11.2504092 Z M160.011869,0.0455482155 L154.774616,0.0455482155 L154.774616,49.4653621 L164.927537,49.4653621 L164.927537,4.78256263 C164.927537,3.46166438 164.422188,2.32295899 163.457431,1.41199468 C162.538614,0.501030371 161.390094,0.0455482155 160.011869,0.0455482155 Z" id="Shape" fill-rule="nonzero"></path>
            <path d="M209.872353,52.631749 L211.774845,52.631749 L211.774845,64.8970087 L218.887681,64.8970087 L218.887681,66.5557571 L209.872353,66.5557571 L209.872353,52.631749 Z M220.943137,52.631749 L231.182179,52.631749 L231.182179,54.3378902 L222.797828,54.3378902 L222.797828,58.565329 L230.551201,58.565329 L230.551201,60.1766846 L222.797828,60.1766846 L222.797828,64.8970087 L231.325582,64.8970087 L231.325582,66.5557571 L220.943137,66.5557571 L220.943137,52.631749 Z M241.029249,60.8496626 L238.897311,54.6980756 L236.631528,60.8496626 L241.029249,60.8496626 Z M237.903043,52.631749 L240.054102,52.631749 L245.149723,66.5557571 L243.065585,66.5557571 L241.641106,62.3851897 L236.086593,62.3851897 L234.566512,66.5557571 L232.616218,66.5557571 L237.903043,52.631749 Z M252.272118,64.9444015 C252.915846,64.9444015 253.444842,64.8780523 253.859122,64.7453517 C254.598453,64.4989079 255.20393,64.0249845 255.675572,63.3235674 C256.051611,62.7611698 256.322482,62.0408063 256.488194,61.1624551 C256.583797,60.6379721 256.631598,60.1514107 256.631598,59.7027565 C256.631598,57.9776495 256.285839,56.6380261 255.59431,55.6838461 C254.902781,54.729666 253.789021,54.2525831 252.252998,54.2525831 L248.878225,54.2525831 L248.878225,64.9444015 L252.272118,64.9444015 Z M246.966172,52.631749 L252.654529,52.631749 C254.585712,52.631749 256.083471,53.3110391 257.147852,54.6696399 C258.09751,55.8955401 258.572332,57.4658062 258.572332,59.3804854 C258.572332,60.8591485 258.2919,62.1956125 257.731028,63.3899173 C256.74313,65.5004878 255.044607,66.5557571 252.635408,66.5557571 L246.966172,66.5557571 L246.966172,52.631749 Z" id="LEAD"></path>
        </g>
    </g>
</svg>