<?xml version="1.0" encoding="UTF-8"?>
<svg width="191px" height="48px" viewBox="0 0 191 48" version="1.1" xmlns="http://www.w3.org/2000/svg" xmlns:xlink="http://www.w3.org/1999/xlink">
    <!-- Generator: Sketch 43.2 (39069) - http://www.bohemiancoding.com/sketch -->
    <title>Clearlink Lead Blue</title>
    <desc>Created with Sketch.</desc>
    <defs></defs>
    <g id="Page-1" stroke="none" stroke-width="1" fill="none" fill-rule="evenodd">
        <g id="Clearlink-Lead-Blue" fill="#00AFEC">
            <path d="M85.8353902,9.46061706 C83.8972777,8.14664247 81.0065336,7.48965517 77.1303085,7.48965517 C73.6811252,7.48965517 71.0203267,8.27803993 69.1479129,9.8876588 C67.5054446,11.2673321 66.5199637,13.0411978 66.2571688,15.1764065 L73.1883848,15.1764065 C73.5168784,14.4208711 74.0753176,13.8952813 74.830853,13.6324864 C75.5863884,13.3696915 76.4404719,13.2054446 77.4259528,13.2054446 C78.3128857,13.2054446 79.2983666,13.3696915 80.3823956,13.6653358 C81.4664247,13.96098 81.9920145,14.6508167 81.9920145,15.7019964 C81.9920145,16.2604356 81.6963702,16.753176 81.2693285,17.1145191 C80.6780399,17.6072595 79.8896552,17.8700544 79.1341198,18.0671506 C78.8056261,18.1656987 78.4771325,18.2313975 78.1486388,18.2642468 C76.8675136,18.4941924 75.5863884,18.6584392 74.3381125,18.8555354 C73.122686,19.0526316 71.9072595,19.3482759 70.7575318,19.808167 C69.8049002,20.2023593 68.9179673,20.6622505 68.0967332,21.2863884 C66.3885662,22.5346642 65.5673321,24.6041742 65.5673321,27.4949183 C65.5673321,30.615608 66.4871143,32.8165154 68.3595281,34.1633394 C70.2319419,35.5101633 72.4,36.2 74.8965517,36.2 C76.1448276,36.2 77.5573503,36.1014519 79.1998185,35.9372051 C80.8094374,35.7729583 82.3533575,35.3130672 83.7987296,34.5246824 C85.1784029,33.8348457 86.36098,32.7179673 87.3793103,31.1411978 C88.3647913,29.5972777 88.8903811,27.4292196 88.8903811,24.669873 L88.8903811,15.2749546 C88.8246824,12.7784029 87.8392015,10.8402904 85.8353902,9.46061706 Z M82.0905626,24.3742287 C82.0905626,26.3123412 81.5321234,27.823412 80.4480944,28.9402904 C79.331216,30.0571688 77.8201452,30.5827586 75.8820327,30.5827586 C74.6994555,30.5827586 73.8125227,30.3199637 73.1883848,29.7615245 C72.5642468,29.1373866 72.2686025,28.3161525 72.2686025,27.2649728 C72.2686025,26.5094374 72.4985481,25.5568058 72.9912886,24.9983666 C73.484029,24.4399274 74.46951,23.9143376 75.6849365,23.6515426 C76.900363,23.3887477 78.0829401,23.1259528 78.0829401,23.1259528 C79.8239564,22.6989111 81.1707804,22.2718693 82.123412,21.7791289 L82.123412,24.3742287 L82.0905626,24.3742287 Z M189.343739,33.0136116 C189.507985,32.8822142 189.573684,32.685118 189.573684,32.422323 C189.573684,32.1266788 189.507985,31.9295826 189.310889,31.7981851 C189.146642,31.6667877 188.883848,31.6010889 188.522505,31.6010889 L187.372777,31.6010889 L187.372777,34.5246824 L187.832668,34.5246824 L187.832668,33.2764065 L188.325408,33.2764065 L189.113793,34.5575318 L189.606534,34.5575318 L188.785299,33.2435572 C189.015245,33.2107078 189.212341,33.1450091 189.343739,33.0136116 Z M188.358258,32.8822142 L187.865517,32.8822142 L187.865517,31.9624319 L188.456806,31.9624319 C188.522505,31.9624319 188.621053,31.9624319 188.686751,31.9952813 C188.75245,31.9952813 188.818149,32.0281307 188.883848,32.06098 C188.949546,32.0938294 188.982396,32.1266788 189.015245,32.1923775 C189.048094,32.2580762 189.080944,32.323775 189.080944,32.422323 C189.080944,32.5537205 189.048094,32.6194192 189.015245,32.685118 C188.982396,32.7508167 188.916697,32.7836661 188.850998,32.8165154 C188.785299,32.8493648 188.686751,32.8822142 188.621053,32.8822142 C188.555354,32.8822142 188.456806,32.8822142 188.358258,32.8822142 Z M190.723412,32.06098 C190.592015,31.7653358 190.394918,31.5025408 190.197822,31.2725953 C189.967877,31.0426497 189.705082,30.8784029 189.409437,30.7470054 C189.113793,30.615608 188.785299,30.5499093 188.423956,30.5499093 C188.062613,30.5499093 187.766969,30.615608 187.438475,30.7470054 C187.142831,30.8784029 186.847187,31.0426497 186.617241,31.2725953 C186.387296,31.5025408 186.1902,31.7653358 186.058802,32.06098 C185.927405,32.3566243 185.861706,32.685118 185.861706,33.046461 C185.861706,33.407804 185.927405,33.7362976 186.058802,34.0647913 C186.1902,34.3604356 186.387296,34.6560799 186.617241,34.853176 C186.847187,35.0831216 187.109982,35.2473684 187.405626,35.3787659 C187.70127,35.5101633 188.029764,35.5758621 188.391107,35.5758621 C188.75245,35.5758621 189.048094,35.5101633 189.376588,35.3787659 C189.672232,35.2473684 189.935027,35.0831216 190.164973,34.853176 C190.394918,34.6232305 190.592015,34.3604356 190.723412,34.0647913 C190.854809,33.769147 190.920508,33.407804 190.920508,33.046461 C190.920508,32.685118 190.854809,32.3566243 190.723412,32.06098 Z M190.29637,33.9005445 C190.197822,34.1633394 190.033575,34.3932849 189.869328,34.5903811 C189.672232,34.7874773 189.475136,34.9188748 189.212341,35.0502722 C188.949546,35.1488203 188.686751,35.2145191 188.391107,35.2145191 C188.095463,35.2145191 187.832668,35.1488203 187.569873,35.0502722 C187.307078,34.9517241 187.109982,34.7874773 186.912886,34.5903811 C186.715789,34.3932849 186.584392,34.1633394 186.485844,33.9005445 C186.387296,33.6377495 186.321597,33.3421053 186.321597,33.046461 C186.321597,32.7508167 186.387296,32.4551724 186.485844,32.1923775 C186.584392,31.9295826 186.748639,31.699637 186.912886,31.5025408 C187.109982,31.3054446 187.307078,31.1740472 187.569873,31.0426497 C187.832668,30.9441016 188.095463,30.8784029 188.391107,30.8784029 C188.686751,30.8784029 188.949546,30.9441016 189.212341,31.0426497 C189.475136,31.1411978 189.672232,31.3054446 189.869328,31.5025408 C190.066425,31.699637 190.197822,31.9295826 190.29637,32.1923775 C190.394918,32.4551724 190.460617,32.7179673 190.460617,33.046461 C190.460617,33.3749546 190.394918,33.6377495 190.29637,33.9005445 Z M49.9310345,7.48965517 C45.9891107,7.48965517 42.9341198,8.7707804 40.700363,11.3330309 C38.5651543,13.8295826 37.4811252,17.2787659 37.4811252,21.6805808 C37.4811252,26.3123412 38.5980036,29.8600726 40.7989111,32.3566243 C42.9998185,34.9188748 46.0876588,36.2 50.0295826,36.2 C53.2816697,36.2 55.9753176,35.4116152 58.1105263,33.8019964 C60.245735,32.2909256 61.6911071,30.0571688 62.4466425,27.1664247 L57.2564428,27.1664247 C56.6651543,27.1664247 55.8439201,27.2321234 55.1540835,27.8562613 C54.4313975,28.5132486 54.0043557,29.1373866 53.2816697,29.5315789 C52.4932849,29.9586207 51.5406534,30.1885662 50.423775,30.1885662 C48.6170599,30.1885662 47.2702359,29.630127 46.3833031,28.546098 C45.4306715,27.4949183 44.9050817,25.9181488 44.8393829,23.7829401 L62.7751361,23.7829401 C62.8408348,23.6515426 62.8736842,23.3887477 62.8736842,23.0602541 L62.8736842,22.6332123 L62.8736842,21.9105263 C62.8736842,17.3444646 61.7568058,13.7967332 59.5558984,11.2344828 C57.2892922,8.73793103 54.0700544,7.48965517 49.9310345,7.48965517 Z M44.8393829,19.0854809 C44.9050817,17.2787659 45.4306715,15.8990926 46.3833031,14.946461 C47.3359347,13.9938294 48.5842105,13.5010889 50.1281307,13.5010889 C51.7705989,13.5010889 53.0517241,13.9938294 53.9715064,14.946461 C54.7927405,15.8333938 55.2854809,17.2130672 55.4168784,19.0854809 L44.8393829,19.0854809 Z M31.2068966,0.0328493648 L27.4949183,0.0328493648 L27.4949183,35.6744102 L34.7546279,35.6744102 L34.7546279,3.4491833 C34.7546279,2.49655172 34.3932849,1.6753176 33.7034483,1.01833031 C33.0136116,0.361343013 32.1923775,0.0328493648 31.2068966,0.0328493648 Z M19.2497278,27.199274 L19.2168784,27.199274 C19.0854809,27.2321234 18.9212341,27.2321234 18.7898367,27.2978221 C18.7569873,27.2978221 18.7241379,27.2978221 18.7241379,27.3306715 C18.3956443,27.4292196 18.0343013,27.5934664 17.738657,27.8562613 C17.015971,28.5132486 16.5889292,29.1373866 15.8662432,29.5315789 C15.0778584,29.9586207 14.1252269,30.1885662 13.0083485,30.1885662 C11.2016334,30.1885662 9.85480944,29.630127 8.96787659,28.546098 C7.71960073,27.2321234 7.09546279,24.9983666 7.09546279,21.8119782 C7.09546279,18.6255898 7.71960073,16.3589837 8.96787659,14.9793103 C9.92050817,14.0266788 11.168784,13.5339383 12.7127042,13.5339383 C14.3551724,13.5339383 15.6362976,14.0266788 16.5560799,14.9793103 C16.9174229,15.3406534 17.2459165,15.8333938 17.6072595,16.5232305 L24.8669691,16.5232305 C24.2099819,14.5194192 23.323049,12.7455535 22.0747731,11.2344828 C19.808167,8.73793103 16.5889292,7.48965517 12.4499093,7.48965517 C8.50798548,7.48965517 5.45299456,8.7707804 3.21923775,11.3330309 C1.08402904,13.8295826 0,17.2787659 0,21.6805808 C0,26.3123412 1.1168784,29.8600726 3.31778584,32.3566243 C5.51869328,34.9188748 8.60653358,36.2 12.5484574,36.2 C15.8005445,36.2 18.4941924,35.4116152 20.6294011,33.8019964 C22.7646098,32.2909256 24.2099819,30.0571688 24.9655172,27.1664247 L19.7753176,27.1664247 C19.6110708,27.199274 19.446824,27.199274 19.2497278,27.199274 Z M125.68167,0.0328493648 L121.936842,0.0328493648 L121.936842,5.71578947 L129.196552,5.71578947 L129.196552,3.5477314 C129.196552,2.59509982 128.835209,1.74101633 128.145372,1.05117967 C127.455535,0.394192377 126.634301,0.0328493648 125.68167,0.0328493648 Z M152.880944,9.8876588 C150.318693,8.31088929 147.526497,7.48965517 144.471506,7.48965517 C141.515064,7.62105263 138.788566,8.50798548 136.324864,10.084755 C133.861162,11.6615245 132.645735,14.8150635 132.645735,19.5125227 L132.645735,35.6744102 L139.905445,35.6744102 L139.905445,18.0671506 C139.905445,16.4246824 140.398185,15.2092559 141.350817,14.4537205 C142.303448,13.6981851 143.420327,13.3039927 144.668603,13.3039927 C145.916878,13.3039927 147.033757,13.6981851 148.052087,14.4537205 C149.037568,15.2092559 149.563158,16.4246824 149.563158,18.0671506 L149.563158,32.1595281 C149.563158,33.2107078 149.891652,34.0319419 150.548639,34.6889292 C151.205626,35.3459165 152.05971,35.6744102 153.07804,35.6744102 L156.69147,35.6744102 L156.69147,19.5125227 C156.724319,14.6836661 155.443194,11.4644283 152.880944,9.8876588 Z M184.744828,8.1137931 L176.039746,8.1137931 L167.236116,18.2642468 L167.236116,8.1137931 L167.236116,3.4491833 C167.236116,2.56225045 166.874773,1.74101633 166.184936,1.05117967 C165.4951,0.361343013 164.673866,0 163.688385,0 L159.943557,0 L159.943557,35.6415608 L167.203267,35.6415608 L167.203267,29.0388385 L167.203267,25.2283122 C167.203267,24.669873 167.597459,24.045735 168.352995,23.9800363 C169.141379,23.9143376 169.995463,24.5056261 171.046642,26.3780399 L176.138294,35.7072595 L184.843376,35.7072595 L174.890018,18.7241379 L184.744828,8.1137931 Z M106.497641,8.1137931 C104.625227,8.1137931 102.818512,8.34373866 101.044646,8.83647913 C99.2707804,9.3292196 97.7597096,10.084755 96.445735,11.1030853 C95.0660617,12.2199637 93.9820327,13.6653358 93.1936479,15.5049002 C92.4052632,17.3444646 92.0110708,19.6110708 92.0110708,22.3047187 L92.0110708,35.6744102 L99.2707804,35.6744102 L99.2707804,21.4834846 C99.2707804,19.4139746 99.7635209,17.9029038 100.716152,16.9174229 C101.668784,15.9647913 103.179855,15.4720508 105.183666,15.4720508 L107.58167,15.4720508 L107.58167,8.1137931 L107.05608,8.1137931 L106.497641,8.1137931 Z M125.68167,8.1137931 L121.936842,8.1137931 L121.936842,35.6744102 L129.196552,35.6744102 L129.196552,11.6286751 C129.196552,10.6760436 128.835209,9.82196007 128.145372,9.13212341 C127.455535,8.47513612 126.634301,8.1137931 125.68167,8.1137931 Z M114.414338,0.0328493648 L110.66951,0.0328493648 L110.66951,35.6744102 L117.92922,35.6744102 L117.92922,3.4491833 C117.92922,2.49655172 117.567877,1.6753176 116.87804,1.01833031 C116.221053,0.361343013 115.399819,0.0328493648 114.414338,0.0328493648 Z" id="Shape" fill-rule="nonzero"></path>
            <text id="LEAD" font-family="Helvetica" font-size="14" font-weight="normal">
                <tspan x="149" y="48">LEAD</tspan>
            </text>
        </g>
    </g>
</svg>