<?xml version="1.0" encoding="utf-8"?>
<!-- Generator: Adobe Illustrator 21.1.0, SVG Export Plug-In . SVG Version: 6.00 Build 0)  -->
<svg version="1.1" id="Layer_1" xmlns="http://www.w3.org/2000/svg" xmlns:xlink="http://www.w3.org/1999/xlink" x="0px" y="0px"
	 viewBox="0 0 587 117" style="enable-background:new 0 0 587 117;" xml:space="preserve">
<style type="text/css">
	.st0{fill:#00ADEE;}
</style>
<g>
	<path class="st0" d="M264.1,33c-5.9-4-14.7-6-26.5-6c-10.5,0-18.6,2.4-24.3,7.3c-5,4.2-8,9.6-8.8,16.1h21.1c1-2.3,2.7-3.9,5-4.7
		c2.3-0.8,4.9-1.3,7.9-1.3c2.7,0,5.7,0.5,9,1.4c3.3,0.9,4.9,3,4.9,6.2c0,1.7-0.9,3.2-2.2,4.3c-1.8,1.5-4.2,2.3-6.5,2.9
		c-1,0.3-2,0.5-3,0.6c-3.9,0.7-7.8,1.2-11.6,1.8c-3.7,0.6-7.4,1.5-10.9,2.9c-2.9,1.2-5.6,2.6-8.1,4.5c-5.2,3.8-7.7,10.1-7.7,18.9
		c0,9.5,2.8,16.2,8.5,20.3c5.7,4.1,12.3,6.2,19.9,6.2c3.8,0,8.1-0.3,13.1-0.8c4.9-0.5,9.6-1.9,14-4.3c4.2-2.1,7.8-5.5,10.9-10.3
		c3-4.7,4.6-11.3,4.6-19.7V50.7C273.2,43.1,270.2,37.2,264.1,33z M252.7,78.4c0,5.9-1.7,10.5-5,13.9c-3.4,3.4-8,5-13.9,5
		c-3.6,0-6.3-0.8-8.2-2.5c-1.9-1.9-2.8-4.4-2.8-7.6c0-2.3,0.7-5.2,2.2-6.9c1.5-1.7,4.5-3.3,8.2-4.1c3.7-0.8,7.3-1.6,7.3-1.6
		c5.3-1.3,9.4-2.6,12.3-4.1V78.4z M579.2,104.7c0.5-0.4,0.7-1,0.7-1.8c0-0.9-0.2-1.5-0.8-1.9c-0.5-0.4-1.3-0.6-2.4-0.6l-3.5,0l0,8.9
		l1.4,0l0-3.8l1.5,0l2.4,3.9l1.5,0l-2.5-4C578.2,105.3,578.8,105.1,579.2,104.7z M576.2,104.3l-1.5,0l0-2.8l1.8,0
		c0.2,0,0.5,0,0.7,0.1c0.2,0,0.4,0.1,0.6,0.2c0.2,0.1,0.3,0.2,0.4,0.4c0.1,0.2,0.2,0.4,0.2,0.7c0,0.4-0.1,0.6-0.2,0.8
		c-0.1,0.2-0.3,0.3-0.5,0.4c-0.2,0.1-0.5,0.2-0.7,0.2C576.8,104.3,576.5,104.3,576.2,104.3z M583.4,101.8c-0.4-0.9-1-1.7-1.6-2.4
		c-0.7-0.7-1.5-1.2-2.4-1.6c-0.9-0.4-1.9-0.6-3-0.6c-1.1,0-2,0.2-3,0.6c-0.9,0.4-1.8,0.9-2.5,1.6c-0.7,0.7-1.3,1.5-1.7,2.4
		c-0.4,0.9-0.6,1.9-0.6,3c0,1.1,0.2,2.1,0.6,3.1c0.4,0.9,1,1.8,1.7,2.4c0.7,0.7,1.5,1.2,2.4,1.6c0.9,0.4,1.9,0.6,3,0.6
		c1.1,0,2-0.2,3-0.6c0.9-0.4,1.7-0.9,2.4-1.6c0.7-0.7,1.3-1.5,1.7-2.4c0.4-0.9,0.6-2,0.6-3.1C584,103.7,583.8,102.7,583.4,101.8z
		 M582.1,107.4c-0.3,0.8-0.8,1.5-1.3,2.1c-0.6,0.6-1.2,1-2,1.4c-0.8,0.3-1.6,0.5-2.5,0.5c-0.9,0-1.7-0.2-2.5-0.5
		c-0.8-0.3-1.4-0.8-2-1.4c-0.6-0.6-1-1.3-1.3-2.1c-0.3-0.8-0.5-1.7-0.5-2.6c0-0.9,0.2-1.8,0.5-2.6c0.3-0.8,0.8-1.5,1.3-2.1
		c0.6-0.6,1.2-1,2-1.4c0.8-0.3,1.6-0.5,2.5-0.5c0.9,0,1.7,0.2,2.5,0.5c0.8,0.3,1.4,0.8,2,1.4c0.6,0.6,1,1.3,1.3,2.1
		c0.3,0.8,0.5,1.6,0.5,2.6C582.6,105.8,582.4,106.6,582.1,107.4z M154.8,27c-12,0-21.3,3.9-28.1,11.7c-6.5,7.6-9.8,18.1-9.8,31.5
		c0,14.1,3.4,24.9,10.1,32.5c6.7,7.8,16.1,11.7,28.1,11.7c9.9,0,18.1-2.4,24.6-7.3c6.5-4.6,10.9-11.4,13.2-20.2c0,0-13.1,0-15.8,0
		c-1.8,0-4.3,0.2-6.4,2.1c-2.2,2-3.5,3.9-5.7,5.1c-2.4,1.3-5.3,2-8.7,2c-5.5,0-9.6-1.7-12.3-5c-2.9-3.2-4.5-8-4.7-14.5h54.6
		c0.2-0.4,0.3-1.2,0.3-2.2c0-0.2,0-0.6,0-1.3c0-0.6,0-1.4,0-2.2c0-13.9-3.4-24.7-10.1-32.5C177.2,30.8,167.4,27,154.8,27z
		 M139.3,62.3c0.2-5.5,1.8-9.7,4.7-12.6c2.9-2.9,6.7-4.4,11.4-4.4c5,0,8.9,1.5,11.7,4.4c2.5,2.7,4,6.9,4.4,12.6H139.3z M97.8,4.3
		H86.5v108.5h22.1V14.7c0-2.9-1.1-5.4-3.2-7.4C103.3,5.3,100.8,4.3,97.8,4.3z M61.4,87c0,0-0.1,0-0.1,0c-0.4,0.1-0.9,0.1-1.3,0.3
		c-0.1,0-0.2,0-0.2,0.1c-1,0.3-2.1,0.8-3,1.6c-2.2,2-3.5,3.9-5.7,5.1c-2.4,1.3-5.3,2-8.7,2c-5.5,0-9.6-1.7-12.3-5
		c-3.8-4-5.7-10.8-5.7-20.5c0-9.7,1.9-16.6,5.7-20.8c2.9-2.9,6.7-4.4,11.4-4.4c5,0,8.9,1.5,11.7,4.4c1.1,1.1,2.1,2.6,3.2,4.7h22.1
		C76.5,48.4,73.8,43,70,38.4C63.1,30.8,53.3,27,40.7,27c-12,0-21.3,3.9-28.1,11.7c-6.5,7.6-9.8,18.1-9.8,31.5
		c0,14.1,3.4,24.9,10.1,32.5c6.7,7.8,16.1,11.7,28.1,11.7c9.9,0,18.1-2.4,24.6-7.3c6.5-4.6,10.9-11.4,13.2-20.2c0,0-14.2,0-15.8,0
		C62.5,87,62,87,61.4,87z M385.4,4.3H374v17.3h22.1V15c0-2.9-1.1-5.5-3.2-7.6C390.8,5.4,388.3,4.3,385.4,4.3z M468.2,34.3
		c-7.8-4.8-16.3-7.3-25.6-7.3c-9,0.4-17.3,3.1-24.8,7.9c-7.5,4.8-11.2,14.4-11.2,28.7v49.2h22.1V59.2c0-5,1.5-8.7,4.4-11
		c2.9-2.3,6.3-3.5,10.1-3.5c3.8,0,7.2,1.2,10.3,3.5c3,2.3,4.6,6,4.6,11v42.9c0,3.2,1,5.7,3,7.7c2,2,4.6,3,7.7,3h11V63.6
		C479.9,48.9,476,39.1,468.2,34.3z M565.2,28.9h-26.5l-26.8,30.9V28.9V14.7c0-2.7-1.1-5.2-3.2-7.3c-2.1-2.1-4.6-3.2-7.6-3.2h-11.4
		v108.5h22.1V92.6V81c0-1.7,1.2-3.6,3.5-3.8c2.4-0.2,5,1.6,8.2,7.3l15.5,28.4h26.5l-30.3-51.7L565.2,28.9z M327,28.9
		c-5.7,0-11.2,0.7-16.6,2.2c-5.4,1.5-10,3.8-14,6.9c-4.2,3.4-7.5,7.8-9.9,13.4c-2.4,5.6-3.6,12.5-3.6,20.7v40.7h22.1V69.6
		c0-6.3,1.5-10.9,4.4-13.9c2.9-2.9,7.5-4.4,13.6-4.4h7.3V28.9c-0.4,0-0.9,0-1.6,0C328,28.9,327.4,28.9,327,28.9z M385.4,28.9H374
		v83.9h22.1V39.6c0-2.9-1.1-5.5-3.2-7.6C390.8,30,388.3,28.9,385.4,28.9z M351.1,4.3h-11.4v108.5h22.1V14.7c0-2.9-1.1-5.4-3.2-7.4
		C356.6,5.3,354.1,4.3,351.1,4.3z"/>
</g>
</svg>
