<?xml version="1.0" encoding="UTF-8"?>
<svg width="86px" height="22px" viewBox="0 0 86 22" version="1.1" xmlns="http://www.w3.org/2000/svg" xmlns:xlink="http://www.w3.org/1999/xlink">
    <!-- Generator: Sketch 43.2 (39069) - http://www.bohemiancoding.com/sketch -->
    <title>Clearlink Lead White Toolbar</title>
    <desc>Created with Sketch.</desc>
    <defs></defs>
    <g id="Page-1" stroke="none" stroke-width="1" fill="none" fill-rule="evenodd">
        <g id="Clearlink-Lead-White-Toolbar" fill="#FFFFFF">
            <path d="M38.6483956,4.33611615 C37.7757376,3.7338778 36.474146,3.43275862 34.72883,3.43275862 C33.1757946,3.43275862 31.9777387,3.79410163 31.1346623,4.53184362 C30.3951217,5.16419389 29.9513973,5.97721567 29.8330708,6.95585299 L32.9539324,6.95585299 C33.1018405,6.60956594 33.3532844,6.3686706 33.6934731,6.24822293 C34.0336618,6.12777526 34.4182229,6.05249546 34.8619473,6.05249546 C35.2612993,6.05249546 35.7050237,6.12777526 36.1931206,6.26327889 C36.6812174,6.39878252 36.9178704,6.71495765 36.9178704,7.19674834 C36.9178704,7.45269964 36.7847531,7.67853902 36.5924725,7.84415457 C36.3262379,8.06999395 35.9712583,8.19044162 35.6310696,8.28077737 C35.4831615,8.32594525 35.3352534,8.35605717 35.1873452,8.37111313 C34.6105035,8.47650484 34.0336618,8.55178463 33.4716109,8.64212039 C32.9243508,8.73245614 32.3770907,8.86795977 31.8594122,9.07874319 C31.4304786,9.2594147 31.0311267,9.47019812 30.6613563,9.75626134 C29.892234,10.3283878 29.5224637,11.2769132 29.5224637,12.6018376 C29.5224637,14.0321537 29.9366065,15.0409029 30.7796828,15.6581972 C31.6227592,16.2754915 32.5989529,16.5916667 33.7230547,16.5916667 C34.2851056,16.5916667 34.9211106,16.5464988 35.6606513,16.471219 C36.3854011,16.3959392 37.0805694,16.1851558 37.7313652,15.8238128 C38.3525793,15.5076376 38.8850486,14.995735 39.3435638,14.273049 C39.7872882,13.5654189 40.0239412,12.5717257 40.0239412,11.3070251 L40.0239412,7.00102087 C39.9943596,5.856768 39.5506352,4.96846642 38.6483956,4.33611615 Z M36.9622429,11.1715215 C36.9622429,12.059823 36.710799,12.7523972 36.2227022,13.2642998 C35.7198145,13.7762024 35.0394371,14.0170977 34.1667791,14.0170977 C33.6343098,14.0170977 33.2349579,13.89665 32.9539324,13.6406987 C32.6729069,13.3546355 32.5397896,12.9782365 32.5397896,12.4964459 C32.5397896,12.1501588 32.6433253,11.713536 32.8651875,11.4575847 C33.0870497,11.2016334 33.5307741,10.9607381 34.0780342,10.8402904 C34.6252943,10.7198427 35.1577636,10.599395 35.1577636,10.599395 C35.9416767,10.4036676 36.5481001,10.2079401 36.9770337,9.98210073 L36.9770337,11.1715215 L36.9622429,11.1715215 Z M85.2542488,15.1312387 C85.3282029,15.0710148 85.3577845,14.9806791 85.3577845,14.8602314 C85.3577845,14.7247278 85.3282029,14.634392 85.239458,14.5741682 C85.1655039,14.5139443 85.0471774,14.4838324 84.8844785,14.4838324 L84.3668,14.4838324 L84.3668,15.8238128 L84.5738714,15.8238128 L84.5738714,15.2516863 L84.7957336,15.2516863 L85.1507131,15.8388687 L85.3725753,15.8388687 L85.002805,15.2366304 C85.1063407,15.2215744 85.1950856,15.1914625 85.2542488,15.1312387 Z M84.8105244,15.0710148 L84.5886622,15.0710148 L84.5886622,14.649448 L84.8548969,14.649448 C84.8844785,14.649448 84.9288509,14.649448 84.9584326,14.6645039 C84.9880142,14.6645039 85.0175958,14.6795599 85.0471774,14.6946158 C85.0767591,14.7096718 85.0915499,14.7247278 85.1063407,14.7548397 C85.1211315,14.7849516 85.1359223,14.8150635 85.1359223,14.8602314 C85.1359223,14.9204552 85.1211315,14.9505672 85.1063407,14.9806791 C85.0915499,15.010791 85.0619682,15.0258469 85.0323866,15.0409029 C85.002805,15.0559589 84.9584326,15.0710148 84.9288509,15.0710148 C84.8992693,15.0710148 84.8548969,15.0710148 84.8105244,15.0710148 Z M85.875463,14.6946158 C85.8162997,14.5591122 85.7275549,14.4386645 85.63881,14.3332728 C85.5352743,14.2278811 85.4169478,14.1526013 85.2838304,14.0923775 C85.1507131,14.0321537 85.002805,14.0020417 84.840106,14.0020417 C84.6774071,14.0020417 84.5442898,14.0321537 84.3963816,14.0923775 C84.2632643,14.1526013 84.130147,14.2278811 84.0266113,14.3332728 C83.9230756,14.4386645 83.8343307,14.5591122 83.7751675,14.6946158 C83.7160042,14.8301195 83.6864226,14.9806791 83.6864226,15.1462946 C83.6864226,15.3119102 83.7160042,15.4624698 83.7751675,15.6130293 C83.8343307,15.748533 83.9230756,15.8840366 84.0266113,15.9743724 C84.130147,16.0797641 84.2484735,16.1550439 84.3815908,16.2152677 C84.5147081,16.2754915 84.6626163,16.3056034 84.8253152,16.3056034 C84.9880142,16.3056034 85.1211315,16.2754915 85.2690396,16.2152677 C85.402157,16.1550439 85.5204835,16.0797641 85.6240192,15.9743724 C85.7275549,15.8689806 85.8162997,15.748533 85.875463,15.6130293 C85.9346262,15.4775257 85.9642079,15.3119102 85.9642079,15.1462946 C85.9642079,14.9806791 85.9346262,14.8301195 85.875463,14.6946158 Z M85.6831824,15.5377495 C85.63881,15.6581972 85.5648559,15.7635889 85.4909018,15.8539247 C85.402157,15.9442604 85.3134121,16.0044843 85.1950856,16.0647081 C85.0767591,16.109876 84.9584326,16.1399879 84.8253152,16.1399879 C84.6921979,16.1399879 84.5738714,16.109876 84.4555449,16.0647081 C84.3372184,16.0195402 84.2484735,15.9442604 84.1597286,15.8539247 C84.0709837,15.7635889 84.0118205,15.6581972 83.967448,15.5377495 C83.9230756,15.4173019 83.893494,15.2817982 83.893494,15.1462946 C83.893494,15.010791 83.9230756,14.8752874 83.967448,14.7548397 C84.0118205,14.634392 84.0857746,14.5290003 84.1597286,14.4386645 C84.2484735,14.3483288 84.3372184,14.288105 84.4555449,14.2278811 C84.5738714,14.1827132 84.6921979,14.1526013 84.8253152,14.1526013 C84.9584326,14.1526013 85.0767591,14.1827132 85.1950856,14.2278811 C85.3134121,14.273049 85.402157,14.3483288 85.4909018,14.4386645 C85.5796467,14.5290003 85.63881,14.634392 85.6831824,14.7548397 C85.7275549,14.8752874 85.7571365,14.995735 85.7571365,15.1462946 C85.7571365,15.2968542 85.7275549,15.4173019 85.6831824,15.5377495 Z M22.4820365,3.43275862 C20.7071389,3.43275862 19.3315932,4.01994102 18.3258179,5.19430581 C17.364415,6.33855868 16.8763182,7.91943436 16.8763182,9.93693285 C16.8763182,12.059823 17.3792058,13.6858666 18.3701903,14.8301195 C19.3611748,16.0044843 20.7515113,16.5916667 22.5264089,16.5916667 C23.9906994,16.5916667 25.2035461,16.2303237 26.164949,15.4925817 C27.1263519,14.8000076 27.7771477,13.7762024 28.1173364,12.451278 L25.7803879,12.451278 C25.5141532,12.451278 25.1443829,12.4813899 24.8337758,12.7674531 C24.5083779,13.0685723 24.3160973,13.3546355 23.9906994,13.535307 C23.6357199,13.7310345 23.2067863,13.8364262 22.7038987,13.8364262 C21.8904039,13.8364262 21.2839806,13.5804749 20.8846286,13.0836283 C20.455695,12.6018376 20.219042,11.8791515 20.1894604,10.9005142 L28.2652445,10.9005142 C28.2948262,10.8402904 28.309617,10.7198427 28.309617,10.5692831 L28.309617,10.3735557 L28.309617,10.0423246 C28.309617,7.94954628 27.8067293,6.32350272 26.8157448,5.14913793 C25.7951787,4.00488506 24.345679,3.43275862 22.4820365,3.43275862 Z M20.1894604,8.7475121 C20.219042,7.91943436 20.455695,7.28708409 20.8846286,6.85046128 C21.3135622,6.41383848 21.8756131,6.18799909 22.5707813,6.18799909 C23.310322,6.18799909 23.8871637,6.41383848 24.3013065,6.85046128 C24.6710769,7.25697217 24.8929391,7.88932244 24.9521023,8.7475121 L20.1894604,8.7475121 Z M14.0512728,0.0150559589 L12.3799109,0.0150559589 L12.3799109,16.3507713 L15.6486806,16.3507713 L15.6486806,1.58087568 C15.6486806,1.14425287 15.4859817,0.767853902 15.1753746,0.466734725 C14.8647675,0.165615547 14.4949972,0.0150559589 14.0512728,0.0150559589 Z M8.66741669,12.4663339 L8.65262588,12.4663339 C8.59346262,12.4813899 8.51950856,12.4813899 8.4603453,12.5115018 C8.44555449,12.5115018 8.43076368,12.5115018 8.43076368,12.5265578 C8.28285554,12.5717257 8.12015659,12.6470054 7.98703927,12.7674531 C7.66164138,13.0685723 7.4693608,13.3546355 7.1439629,13.535307 C6.78898338,13.7310345 6.36004979,13.8364262 5.85716213,13.8364262 C5.04366739,13.8364262 4.43724404,13.5804749 4.03789208,13.0836283 C3.47584116,12.4813899 3.19481571,11.4575847 3.19481571,9.99715668 C3.19481571,8.53672868 3.47584116,7.49786751 4.03789208,6.86551724 C4.46682567,6.42889443 5.02887658,6.20305505 5.72404481,6.20305505 C6.46358548,6.20305505 7.04042721,6.42889443 7.45456999,6.86551724 C7.61726894,7.03113279 7.76517707,7.25697217 7.92787602,7.57314731 L11.1966458,7.57314731 C10.9008295,6.65473382 10.5014776,5.84171204 9.93942665,5.14913793 C8.91886052,4.00488506 7.4693608,3.43275862 5.6057183,3.43275862 C3.83082069,3.43275862 2.45527504,4.01994102 1.44949972,5.19430581 C0.488096844,6.33855868 0,7.91943436 0,9.93693285 C0,12.059823 0.502887658,13.6858666 1.49387216,14.8301195 C2.48485666,16.0044843 3.87519313,16.5916667 5.65009074,16.5916667 C7.11438128,16.5916667 8.32722798,16.2303237 9.28863086,15.4925817 C10.2500337,14.8000076 10.9008295,13.7762024 11.2410182,12.451278 L8.90406971,12.451278 C8.83011564,12.4663339 8.75616157,12.4663339 8.66741669,12.4663339 Z M56.5896523,0.0150559589 L54.9034996,0.0150559589 L54.9034996,2.61973684 L58.1722694,2.61973684 L58.1722694,1.62604356 C58.1722694,1.18942075 58.0095704,0.79796582 57.6989633,0.481790684 C57.3883562,0.180671506 57.0185859,0.0150559589 56.5896523,0.0150559589 Z M68.8364459,4.53184362 C67.6827624,3.80915759 66.4255433,3.43275862 65.0499976,3.43275862 C63.7188244,3.49298246 62.4911869,3.89949335 61.3818759,4.62217937 C60.2725649,5.3448654 59.7253048,6.79023745 59.7253048,8.94323956 L59.7253048,16.3507713 L62.9940746,16.3507713 L62.9940746,8.28077737 C62.9940746,7.52797943 63.2159368,6.97090895 63.6448703,6.6246219 C64.0738039,6.27833485 64.5766916,6.09766334 65.1387425,6.09766334 C65.7007934,6.09766334 66.2036811,6.27833485 66.6621963,6.6246219 C67.1059207,6.97090895 67.3425737,7.52797943 67.3425737,8.28077737 L67.3425737,14.7397837 C67.3425737,15.2215744 67.4904818,15.5979734 67.7862981,15.8990926 C68.0821144,16.2002117 68.4666755,16.3507713 68.9251908,16.3507713 L70.5521802,16.3507713 L70.5521802,8.94323956 C70.566971,6.73001361 69.9901293,5.25452964 68.8364459,4.53184362 Z M83.1835349,3.71882184 L79.2639694,3.71882184 L75.3000314,8.37111313 L75.3000314,3.71882184 L75.3000314,1.58087568 C75.3000314,1.17436479 75.1373324,0.79796582 74.8267253,0.481790684 C74.5161182,0.165615547 74.1463479,0 73.7026235,0 L72.0164708,0 L72.0164708,16.3357154 L75.2852405,16.3357154 L75.2852405,13.3094676 L75.2852405,11.5629764 C75.2852405,11.3070251 75.4627303,11.0209619 75.802919,10.99085 C76.1578985,10.9607381 76.5424597,11.2317453 77.0157657,12.089935 L79.3083418,16.3658273 L83.2279074,16.3658273 L78.7462909,8.58189655 L83.1835349,3.71882184 Z M47.9518173,3.71882184 C47.1087409,3.71882184 46.2952461,3.82421355 45.4965422,4.05005293 C44.6978383,4.27589232 44.0174609,4.62217937 43.4258283,5.0889141 C42.8046142,5.6008167 42.3165173,6.26327889 41.9615378,7.10641258 C41.6065583,7.94954628 41.4290685,8.98840744 41.4290685,10.2229961 L41.4290685,16.3507713 L44.6978383,16.3507713 L44.6978383,9.8465971 C44.6978383,8.89807169 44.9197005,8.20549758 45.3486341,7.75381881 C45.7775677,7.31719601 46.4579451,7.09135662 47.3601847,7.09135662 L48.4399141,7.09135662 L48.4399141,3.71882184 L48.2032611,3.71882184 L47.9518173,3.71882184 Z M56.5896523,3.71882184 L54.9034996,3.71882184 L54.9034996,16.3507713 L58.1722694,16.3507713 L58.1722694,5.32980944 C58.1722694,4.89318663 58.0095704,4.5017317 57.6989633,4.18555656 C57.3883562,3.88443739 57.0185859,3.71882184 56.5896523,3.71882184 Z M51.5164033,0.0150559589 L49.8302506,0.0150559589 L49.8302506,16.3507713 L53.0990203,16.3507713 L53.0990203,1.58087568 C53.0990203,1.14425287 52.9363214,0.767853902 52.6257143,0.466734725 C52.329898,0.165615547 51.9601277,0.0150559589 51.5164033,0.0150559589 Z" id="Shape" fill-rule="nonzero"></path>
            <path d="M67.5691672,17.3974202 L68.1816815,17.3974202 L68.1816815,21.4517008 L70.4716848,21.4517008 L70.4716848,22 L67.5691672,22 L67.5691672,17.3974202 Z M71.1334465,17.3974202 L74.4299431,17.3974202 L74.4299431,17.9613851 L71.730571,17.9613851 L71.730571,19.3587646 L74.2267977,19.3587646 L74.2267977,19.8913981 L71.730571,19.8913981 L71.730571,21.4517008 L74.4761126,21.4517008 L74.4761126,22 L71.1334465,22 L71.1334465,17.3974202 Z M77.6002434,20.1138509 L76.913858,18.0804443 L76.1843811,20.1138509 L77.6002434,20.1138509 Z M76.59375,17.3974202 L77.2862913,17.3974202 L78.9268447,22 L78.2558491,22 L77.7972329,20.6214193 L76.0089373,20.6214193 L75.5195415,22 L74.8916374,22 L76.59375,17.3974202 Z M81.219926,21.4673665 C81.4271764,21.4673665 81.5974886,21.4454348 81.7308676,21.4015706 C81.9688978,21.3201086 82.1638334,21.1634533 82.3156802,20.9315999 C82.4367473,20.7456995 82.5239553,20.5075834 82.5773069,20.2172445 C82.6080867,20.0438766 82.6234764,19.8830438 82.6234764,19.7347412 C82.6234764,19.1645072 82.5121579,18.7216948 82.2895175,18.4062907 C82.0668772,18.0908866 81.7082983,17.9331868 81.21377,17.9331868 L80.1272497,17.9331868 L80.1272497,21.4673665 L81.219926,21.4673665 Z M79.5116574,17.3974202 L81.3430444,17.3974202 C81.9647957,17.3974202 82.4470049,17.6219596 82.7896863,18.0710449 C83.095432,18.4762661 83.2483025,18.9953175 83.2483025,19.6282145 C83.2483025,20.1169865 83.1580166,20.5587545 82.9774419,20.9535319 C82.6593843,21.6511808 82.1125386,22 81.3368885,22 L79.5116574,22 L79.5116574,17.3974202 Z" id="LEAD"></path>
        </g>
    </g>
</svg>